<svg xmlns="http://www.w3.org/2000/svg" viewBox="0 0 512 512">
	<defs>
		<style>
			#kitty #head {
				stroke: white;
				stroke-width: 20;
				stroke-linecap: round;
				stroke-linejoin: round;
				fill: lightgrey;
			}

			#kitty #mouth, 
			#kitty #whiskers {
				stroke-width: 20;
				stroke-linecap: round;
			}

			#kitty #eyes {
				fill: black
			}

			#kitty #nose {
				fill: hsl(0, 100%, 75%);
			}

			#kitty #mouth, 
			#kitty #whiskers {
				stroke: grey;
			}
		</style>
	</defs>

	<rect width="480" height="480" x="16" y="16" rx="128" ry="128" fill="hsl(0, 100%, 85%)" stroke="hsl(0, 100%, 80%)" stroke-width="16" />

	<g id="kitty" transform="translate(256, 256) scale(0.9) translate(0 -20) translate(0, 20) translate(-256, -256)">
		<g id="bucket" transform="scale(0.9) translate(30, 10)" stroke="black" stroke-width="0">
			<path style="fill:#F95428;" d="M454.246,63.473H57.759l50.548,434.584c0.925,7.947,7.657,13.941,15.658,13.941h132.038h132.038
				c8.001,0,14.733-5.994,15.658-13.941L454.246,63.473z" />
			<g>
				<path style="fill:#E03F20;" d="M57.759,63.473l50.548,434.584c0.925,7.947,7.657,13.941,15.658,13.941h61.57L160.368,63.473H57.759
					z"/>
				<path style="fill:#E03F20;" d="M448.645,131.183H63.355c-5.061,0-9.162-4.102-9.162-9.162s4.101-9.162,9.162-9.162h385.29
					c5.061,0,9.161,4.102,9.161,9.162S453.705,131.183,448.645,131.183z" />
				<path style="fill:#E03F20;" d="M443.267,177.385H68.732c-5.061,0-9.162-4.102-9.162-9.162c0-5.06,4.101-9.162,9.162-9.162h374.535
					c5.061,0,9.161,4.102,9.161,9.162C452.428,173.283,448.328,177.385,443.267,177.385z" />
			</g>
			<path style="fill:grey;" d="M493.741,94.134v56.068c0,47.921-14.194,94.107-41.056,133.575
				c-8.343,12.252-17.724,23.624-28.022,34.008c-22.061,22.244-48.348,39.956-77.604,52.086c-0.342,0.134-0.684,0.257-1.051,0.354
				l-79.045,22.024c-0.794,0.232-1.625,0.342-2.455,0.342c-0.684,0-1.368-0.073-2.052-0.232l-96.049-22.024
				c-0.489-0.11-0.989-0.269-1.454-0.464c-28.902-11.983-54.822-29.329-77.054-51.573c-0.195-0.195-0.379-0.379-0.574-0.574
				c-44.537-44.83-69.066-104.295-69.066-167.521V94.134c0-5.057,4.104-9.162,9.162-9.162h32.847l2.125,18.323H36.581v46.907
				c0,49.9,16.552,97.259,47.066,135.822c5.301,6.718,11.043,13.168,17.199,19.325c20.351,20.339,44.036,36.255,70.421,47.298
				l93.02,21.328l76.26-21.242c34.594-14.463,64.68-37.367,87.816-66.745c3.188-4.043,6.254-8.221,9.174-12.521
				c24.785-36.414,37.88-79.033,37.88-123.265v-46.907h-25.799l2.125-18.323h32.835C489.636,84.972,493.741,89.077,493.741,94.134z" />
			<path style="fill:#F7B239;" d="M343.552,371.31c0-16.906-17.028-28.523-32.752-22.315c-16.978,6.704-35.465,10.389-54.797,10.389
				c-19.333,0-37.82-3.685-54.798-10.389c-15.725-6.208-32.752,5.409-32.752,22.315l0,0c0,9.847,6.015,18.699,15.173,22.316
				c22.425,8.857,46.841,13.732,72.378,13.732c25.536,0,49.952-4.875,72.377-13.732C337.538,390.009,343.552,381.157,343.552,371.31
				L343.552,371.31z" />
			<path style="fill:#E09B2D;" d="M206.834,399.734c-9.158-3.617-15.173-12.469-15.173-22.316l0,0
				c0-13.255,10.469-23.256,22.569-23.965c-4.429-1.29-8.776-2.779-13.026-4.456c-15.725-6.209-32.753,5.409-32.753,22.315l0,0
				c0,9.847,6.015,18.699,15.173,22.316c10.853,4.288,22.177,7.631,33.865,9.951C213.893,402.392,210.337,401.118,206.834,399.734z" />
		</g>

		<g id="kitty" transform="translate(256, 256) scale(1) translate(-256, -256)">
			<path id="head" d="M 204.6, 186.1 l -42.4 -69.5 c -1.6 -4 -5.4 -6.8 -9.7 -7.2 -4.3 -.4 -8.5, 1.6 -10.8, 5.3 -112.2, 238.9 -53.9, 304.5, 114.4, 303.7, 252.7, 1, 166.6 -206.3, 114.4 -310.7 -5.1-7.9 -16.9-6.9 -20.6, 1.8 l -42.4, 76.5 h -102.9 Z " />

			<g id="eyes">
				<ellipse cx="205" cy="270" rx="20" ry="30" />
				<ellipse cx="305" cy="270" rx="20" ry="30" />
			</g>

			<g id="mouth" style="display:none">
				<line x1="255" y1="315" x2="255" y2="365" />
				<line x1="215" y1="370" x2="255" y2="365" />
				<line x1="255" y1="365" x2="295" y2="370" />
			</g>

			<g id="nose">
				<ellipse cx="255" cy="320" rx="30" ry="20" />
			</g>

			<g id="whiskers">
				<line x1="30" y1="330" x2="150" y2="330" />
				<line x1="60" y1="390" x2="150" y2="360" />
				<line x1="475" y1="330" x2="350" y2="330" />
				<line x1="445" y1="390" x2="350" y2="360" />
			</g>
		</g>
	</g>
</svg>